# xmcd
#
# Track frame offsets: 
#        150
#        9829
#        33697
#        50909
#        60797
#        80805
#        105352
#        119335
#        144538
#        159328
#        173711
#
# Disc length: 2507 seconds
#
# Revision: 0
# Processed by: cddbd v1.5.2PL0 Copyright (c) Steve Scherf et al.
# Submitted via: ExactAudioCopy v1.3
#
DISCID=8609c90b
DTITLE=David Julia - Inspired
DYEAR=2018
DGENRE=Blues Rock
TTITLE0=Hey There Sally
TTITLE1=Throw Me A Rope
TTITLE2=Something Ain't Right
TTITLE3=Sunshine Boogie 
TTITLE4=If Only
TTITLE5=Nice and Warm 
TTITLE6=Don't Get Me Goin'
TTITLE7=Empty Promises 
TTITLE8=Keep Her Around Too Long
TTITLE9=Clean Break 
TTITLE10=You Don't Need No Shelter 
EXTD=
EXTT0=
EXTT1=
EXTT2=
EXTT3=
EXTT4=
EXTT5=
EXTT6=
EXTT7=
EXTT8=
EXTT9=
EXTT10=
PLAYORDER=
